inDegrees=no
num_controls=7
num_derivatives=13
num_iterations=67
num_multipliers=7
num_parameters=0
num_slacks=7
num_states=26
objective=0.358292
objective_accelerations=0.035755
objective_balance=0.001873
objective_effort=0.058644
objective_height=0.256859
objective_ligament=0.005160
solver_duration=801.627224
status=Solve_Succeeded
success=true
DataType=double
version=3
OpenSimVersion=4.5
endheader
time	/jointset/ground_pelvis/pelvis_tilt/value	/jointset/ground_pelvis/pelvis_tx/value	/jointset/ground_pelvis/pelvis_ty/value	/jointset/hip_r/hip_flexion_r/value	/jointset/hip_r/hip_adduction_r/value	/jointset/hip_r/hip_rotation_r/value	/jointset/back/lumbar_extension/value	/jointset/patellofemoral_r/patellar_flexion_r/value	/jointset/knee_r/knee_flexion_r/value	/jointset/knee_r/knee_adduction_r/value	/jointset/knee_r/knee_rotation_r/value	/jointset/ankle_r/ankle_angle_r/value	/jointset/subtalar_r/subtalar_angle_r/value	/jointset/ground_pelvis/pelvis_tilt/speed	/jointset/ground_pelvis/pelvis_tx/speed	/jointset/ground_pelvis/pelvis_ty/speed	/jointset/hip_r/hip_flexion_r/speed	/jointset/hip_r/hip_adduction_r/speed	/jointset/hip_r/hip_rotation_r/speed	/jointset/back/lumbar_extension/speed	/jointset/patellofemoral_r/patellar_flexion_r/speed	/jointset/knee_r/knee_flexion_r/speed	/jointset/knee_r/knee_adduction_r/speed	/jointset/knee_r/knee_rotation_r/speed	/jointset/ankle_r/ankle_angle_r/speed	/jointset/subtalar_r/subtalar_angle_r/speed	/forceset/tau_hip_flexion_r	/forceset/tau_hip_adduction_r	/forceset/tau_hip_rotation_r	/forceset/tau_knee_flexion_r	/forceset/tau_ankle_angle_r	/forceset/tau_subtalar_angle_r	/forceset/tau_lumbar_extension	lambda_cid13_p0	lambda_cid14_p0	lambda_cid14_p1	lambda_cid14_p2	lambda_cid14_p3	lambda_cid14_p4	lambda_cid14_p5	/jointset/ground_pelvis/pelvis_tilt/accel	/jointset/ground_pelvis/pelvis_tx/accel	/jointset/ground_pelvis/pelvis_ty/accel	/jointset/hip_r/hip_flexion_r/accel	/jointset/hip_r/hip_adduction_r/accel	/jointset/hip_r/hip_rotation_r/accel	/jointset/back/lumbar_extension/accel	/jointset/patellofemoral_r/patellar_flexion_r/accel	/jointset/knee_r/knee_flexion_r/accel	/jointset/knee_r/knee_adduction_r/accel	/jointset/knee_r/knee_rotation_r/accel	/jointset/ankle_r/ankle_angle_r/accel	/jointset/subtalar_r/subtalar_angle_r/accel	gamma_cid13_p0	gamma_cid14_p0	gamma_cid14_p1	gamma_cid14_p2	gamma_cid14_p3	gamma_cid14_p4	gamma_cid14_p5
0.5	-0.2023037091681855	-0.03667024167090017	0.5724723700036093	1.575059314446537	-0.2414540656970106	-0.02581946553867573	-0.7628344129712185	1.681534343275598	1.681534343275583	-0.1595247106284934	0.1721971751029898	0.4293532311440112	0.1648966743753502	-0.3211947378233518	-0.1126301912427244	-1.084651800942978	2.979252858979303	-0.05486070025738851	0.5649575666188779	-0.3315584504910608	2.790715677351836	2.79071567735183	-0.222706545065662	-0.01106033563691352	0.2139528126977378	-0.01067871824220797	-0.3485951707774246	0.0002588704115104562	0.008426843689651801	-0.521423637366888	0.04351220965625606	0.003160031282981464	0.3871522973063706	-0.04144498030548103	-38.77978720653595	-9.08416075898449	6.058224955447638	-5.215854544379806	-788.4721899304668	81.69272587185522	2.013477505995314	1.157681485851159	1.648236679172444	-5.276557172331778	0.899200432242955	0.6191684187826839	3.195913941805454	-7.313664511087351	-7.313664511087383	1.963479947710158	0.0558013446245777	-4.325813426891116	-0.492565984537835	-2.236542649179431e-07	2.784228476268874e-07	1.540690388067799e-06	2.275515015696206e-07	-9.560445746141221e-07	-1.372718439571245e-07	-2.840275733901333e-07
0.51	-0.2054148432651057	-0.03773934662036174	0.5617107773490069	1.604585138221761	-0.2419588208485745	-0.0201404295078039	-0.765992523548224	1.709073885541522	1.709073885541505	-0.1616532612463542	0.1720934647353947	0.4312772983446957	0.164763712937893	-0.3010274924619032	-0.1012631431828994	-1.067397501133398	2.925541688160568	-0.04607980251693555	0.5707327501344186	-0.300307677139197	2.716945629143464	2.716945629143463	-0.203085722942916	-0.009589575555747657	0.1710016582863274	-0.01581289168805707	-0.3538775943318139	-0.0006614791082011311	0.007105302699784685	-0.5306468047416459	0.04508410822569398	0.002436552460237233	0.3919260150222211	-0.04111541387064224	-38.92524070980725	-9.605567913731651	6.348933587234307	-4.71001928761384	-796.7800606783366	82.18894892418695	2.018996072057007	1.115182131004969	1.804391009920248	-5.473958751847717	0.8691501003773294	0.5388263387162895	3.053057197452392	-7.445691548972355	-7.445691548971715	1.949388778826636	0.2065252815680569	-4.258627377318824	-0.5085648428944787	-3.271391107375568e-07	1.448011107072876e-07	9.26861187991757e-07	-3.941885564222785e-07	-8.65095293390501e-07	-6.310168853150368e-08	-1.953615620423807e-06
0.52	-0.2083241753042357	-0.03869698795623368	0.5511298005681129	1.633562737945762	-0.2423754438916452	-0.01440721503762958	-0.7688454467585942	1.735868324010709	1.735868324010689	-0.1635880025561234	0.1720072243569494	0.4327760818154545	0.1645824654023204	-0.2808343262669784	-0.09033746852479908	-1.048528626201076	2.86960804873369	-0.03723427855924974	0.5757932544810215	-0.2705209771643232	2.641694918004677	2.64169491800468	-0.1839446834493801	-0.007566337806364256	0.1288960667128047	-0.02033593786534496	-0.3591600178862053	-0.001581828627911291	0.005783761709909037	-0.5398699721164053	0.04665600679513293	0.001713073637496463	0.3966997327380718	-0.04074746037963324	-39.09598967722943	-10.11548689418122	6.619629578802476	-4.126622273684577	-805.4574944319747	82.83083395280421	2.018661672690468	1.06940680550628	1.971151703720912	-5.721050893960622	0.9121256756895137	0.4762325849951285	2.903099266407454	-7.609797097170581	-7.609797097170584	1.867523421868135	0.1662968782680665	-4.15670085931351	-0.3703405308255499	-4.281350678223734e-07	1.527495418072883e-08	3.062330995153492e-07	-9.787703789217776e-07	-7.677506308375574e-07	1.092904723600325e-08	-3.682051111567319e-06
0.53	-0.2110319412080682	-0.03954762740700805	0.5407453362790683	1.661970056671164	-0.2427030556992514	-0.008625492726029837	-0.7714077213066808	1.761903302614808	1.761903302614809	-0.165332781531832	0.1719429157659217	0.4338587963555321	0.1643598379806238	-0.2607563319610267	-0.0798679434964331	-1.028119519557573	2.81148973368411	-0.02826014138758612	0.5804306941837607	-0.242175765884495	2.5650915726675	2.565091572667502	-0.1651332174032409	-0.005300638598195847	0.08786733183946721	-0.02401441369824129	-0.3633735222586171	-0.002707217212912567	0.004396123355860228	-0.5478050669146247	0.04847264160057293	0.0008966135474712312	0.4004256705600449	-0.04035649511420717	-39.09243592154559	-10.63409674116142	6.890372653716883	-3.678366298933552	-812.6324090193596	83.23478909660398	1.99665755367658	1.023953747640163	2.112506915066075	-5.912195333080315	0.8941510246477389	0.4390187847403551	2.763957044008681	-7.716891537543893	-7.716891537544094	1.87005949827207	0.2555360266406524	-4.042897571566696	-0.3404885463519477	-5.225705219053718e-07	-1.003946869519279e-07	-2.277857366420679e-07	-1.516441270652383e-06	-6.731339933714934e-07	8.118590571806524e-08	-5.294193032509909e-06
0.54	-0.213540069320007	-0.04029592592827109	0.5305723064105374	1.689785197541552	-0.2429401074777897	-0.002801092193049995	-0.7736937987449196	1.787165990108424	1.787165990108443	-0.1668930255866206	0.1719010300838783	0.4345378359928301	0.1641056483132325	-0.2409067678899305	-0.06986928262252981	-1.006241742098072	2.751172477729579	-0.01912227274620414	0.5843288987595808	-0.2152815551951515	2.487236695908213	2.487236695908213	-0.1470376992656925	-0.003081756008051014	0.04816108615721724	-0.02664838700434665	-0.3675870266310245	-0.003832605797918952	0.003008485001844544	-0.5557401617128437	0.05028927640601057	8.01534574346239e-05	0.4041516083820237	-0.03988665527501692	-39.11411901865949	-11.1398262326446	7.139302379682376	-3.153717850166321	-820.1766365844197	83.79418193799201	1.972975625719278	0.975233974613778	2.264885866920669	-6.160839074950776	0.9448719696331861	0.3283855596112779	2.612899148310536	-7.860103381592802	-7.860103381592803	1.724333840150007	0.1569335546633317	-3.892203021095938	-0.1614400254673193	-6.097475471352945e-07	-2.007337153083524e-07	-6.65981570233792e-07	-2.002210707064213e-06	-5.815355964270833e-07	1.4726741060772e-07	-6.777669726847222e-06
0.55	-0.2158512762215355	-0.0409466492222448	0.5206251329806445	1.716986341340028	-0.2430854228158583	0.003059182137602595	-0.775718161338509	1.811644234889417	1.811644234889425	-0.1682748837330912	0.1718817911941634	0.4348269429491797	0.1638297130245701	-0.2214089889146526	-0.06035871181071106	-0.9829751552402168	2.688701905230389	-0.009971518410233833	0.5875274021797803	-0.189835732007842	2.408237259244682	2.408237259244688	-0.1294749364101772	-0.0006966149610616837	0.009931714810420931	-0.02844813883380445	-0.3707035261145022	-0.005165517773753406	0.001597836033567614	-0.5623115431256006	0.0522598142049965	-0.00085728519253507	0.4067997103846184	-0.03933603568480679	-38.99206589499499	-11.67586969657624	7.396424104639539	-2.707171596702474	-826.1674094537335	84.05719218475431	1.926899989266984	0.9263619741941574	2.390250053716459	-6.343435291598801	0.895353479696146	0.2853322654986553	2.473708631153896	-7.945982505968044	-7.945982505967129	1.751629108495535	0.2890278577284422	-3.747603983594967	-0.1760734906903245	-6.864771003322207e-07	-2.887923369951075e-07	-1.058978087451636e-06	-2.428923391232095e-06	-4.90722985100243e-07	2.076702873025293e-07	-8.138609077283073e-06
0.5600000000000001	-0.2179697611421363	-0.04150478814015469	0.5109171664110282	1.743552125622681	-0.2431401953477414	0.008945391408899715	-0.7774954087547804	1.835327261564328	1.835327261564322	-0.1694852379309616	0.1718883484105149	0.4347418962336333	0.1635384140718125	-0.2023623717059941	-0.05135240740976419	-0.958400370042467	2.624100574563367	-0.001013711509576664	0.5895158868909552	-0.1658585197320348	2.328193074691756	2.328193074691768	-0.1127369095449338	0.002077465206395608	-0.02666964822131421	-0.02972111982347292	-0.3738200255979672	-0.006498429749588805	0.0001871870653417136	-0.5688829245383566	0.05423035200397946	-0.00179472384250895	0.4094478123872266	-0.03869286962539509	-38.89431306585333	-12.1982714410823	7.630927395911959	-2.186874336456714	-832.5127703038542	84.47927517120036	1.88274327239535	0.8743806924394297	2.52652553489966	-6.586990708516962	0.9062824825705658	0.08638181780641591	2.319176966010092	-8.069052959471744	-8.069052959471744	1.559386642095633	0.2347213787569023	-3.566601358083656	-0.05608585750942083	-7.506696870895511e-07	-3.621144706782598e-07	-1.397735425020825e-06	-2.784767972707241e-06	-4.008533165144865e-07	2.612588101635242e-07	-9.352503615037174e-06
0.5700000000000001	-0.2199001750146146	-0.04197542880009139	0.5014612596375676	1.769461061063805	-0.2431065907729838	0.01484650398028288	-0.7790404169007297	1.858204994338375	1.858204994338394	-0.1705311707795373	0.1719247670991432	0.4342995948066323	0.1632368218298576	-0.1838039685191587	-0.04286337404612795	-0.9325873588900132	2.557313198849027	0.007664901763282848	0.590494523398317	-0.1434099927732991	2.247217256080538	2.247217256080551	-0.09657261839290875	0.005301222619691458	-0.06145987770446112	-0.03055394861963609	-0.3759822923542847	-0.008018692219211266	-0.001179658401910904	-0.5740667213650043	0.05622108847067484	-0.002806591424709276	0.4111383688464812	-0.03797257038750185	-38.69623445203075	-12.72831245949108	7.85851876384914	-1.724471212565713	-837.3812701903486	84.66751387649676	1.829710524621156	0.8229472344906463	2.637791083741132	-6.78074182441024	0.8378894604549975	0.07129557124572097	2.167658063480781	-8.132122521516491	-8.132122521516386	1.627140133629271	0.3795244830867193	-3.385629589991112	-0.0909760190722904	-7.850723650557004e-07	-4.115913761632327e-07	-1.680613276819527e-06	-3.013326450619691e-06	-3.115318694589528e-07	3.048711368758317e-07	-1.021293029928625e-05
